<?xml version="1.0" encoding="UTF-8"?> <svg xmlns="http://www.w3.org/2000/svg" width="161" height="34" viewBox="0 0 161 34" fill="none"><path d="M138.121 19.5349H136.136V26.3124H134.548V19.5349H132.559V18.0713H138.121V19.5349Z" fill="white"></path><path d="M144.011 24.8488V26.3124H139.228V18.0713H143.896V19.5349H140.82V21.4481H143.408V22.883H140.82V24.844L144.011 24.8488Z" fill="white"></path><path d="M144.662 22.1892C144.648 21.6278 144.748 21.0692 144.957 20.5478C145.165 20.0264 145.478 19.5531 145.876 19.1568C146.274 18.7605 146.749 18.4497 147.272 18.2433C147.794 18.0368 148.353 17.9392 148.914 17.9563C149.58 17.9336 150.241 18.087 150.829 18.4011C151.416 18.7152 151.911 19.1788 152.262 19.7451L151.1 20.5487C150.862 20.205 150.541 19.9261 150.168 19.7374C149.795 19.5486 149.38 19.456 148.962 19.4677C148.258 19.4972 147.593 19.7976 147.105 20.3061C146.618 20.8146 146.345 21.4919 146.345 22.1964C146.345 22.901 146.618 23.5782 147.105 24.0867C147.593 24.5952 148.258 24.8956 148.962 24.9251C149.378 24.9375 149.791 24.845 150.162 24.6561C150.533 24.4672 150.851 24.188 151.086 23.8441L152.258 24.6525C151.906 25.2188 151.412 25.6824 150.824 25.9965C150.236 26.3106 149.576 26.464 148.91 26.4413C148.347 26.4586 147.786 26.3604 147.263 26.1527C146.739 25.9451 146.264 25.6324 145.866 25.234C145.468 24.8356 145.156 24.3599 144.949 23.8363C144.742 23.3126 144.644 22.7521 144.662 22.1892Z" fill="white"></path><path d="M160.002 18.0713V26.3124H158.409V22.9356H155.018V26.3124H153.43V18.0713H155.018V21.472H158.409V18.0713H160.002Z" fill="white"></path><path fill-rule="evenodd" clip-rule="evenodd" d="M120.838 19.147L118.509 21.7298V25.2884C118.509 25.5598 118.401 25.8202 118.209 26.0121C118.017 26.2041 117.757 26.3119 117.486 26.3119H114.731C114.459 26.3119 114.199 26.2041 114.007 26.0121C113.815 25.8202 113.707 25.5598 113.707 25.2884V1.90442C113.707 1.63295 113.815 1.37261 114.007 1.18065C114.199 0.988699 114.459 0.880859 114.731 0.880859H117.486C117.757 0.880859 118.017 0.988699 118.209 1.18065C118.401 1.37261 118.509 1.63295 118.509 1.90442V15.6028L125.205 8.0314C125.301 7.92271 125.419 7.83573 125.551 7.77633C125.683 7.71693 125.826 7.68648 125.971 7.68703H128.936C129.134 7.68722 129.327 7.74466 129.493 7.85239C129.659 7.96013 129.79 8.11356 129.87 8.29415C129.95 8.47474 129.977 8.67475 129.946 8.87003C129.915 9.0653 129.829 9.24748 129.697 9.39455L123.813 15.8898L130.739 24.6522C130.857 24.8032 130.931 24.9843 130.951 25.1749C130.972 25.3656 130.938 25.5582 130.854 25.7307C130.771 25.9032 130.64 26.0487 130.478 26.1506C130.315 26.2525 130.127 26.3067 129.936 26.3071H127.162C127.011 26.307 126.862 26.2735 126.725 26.209C126.589 26.1445 126.468 26.0506 126.372 25.9341L120.838 19.147ZM110.016 0.881038H107.261C107.125 0.878495 106.99 0.903092 106.864 0.953391C106.737 1.00369 106.622 1.07868 106.525 1.17398C106.428 1.26928 106.351 1.38298 106.298 1.50843C106.246 1.63387 106.219 1.76855 106.219 1.90459V4.08563C106.219 4.22167 106.246 4.35635 106.298 4.4818C106.351 4.60725 106.428 4.72094 106.525 4.81624C106.622 4.91154 106.737 4.98653 106.864 5.03683C106.99 5.08713 107.125 5.11173 107.261 5.10919H110.016C110.288 5.10919 110.548 5.00135 110.74 4.80939C110.932 4.61744 111.04 4.35709 111.04 4.08563V1.90459C111.04 1.63313 110.932 1.37279 110.74 1.18083C110.548 0.988878 110.288 0.881038 110.016 0.881038ZM110.016 7.68721H107.261C106.99 7.68721 106.73 7.79505 106.538 7.987C106.346 8.17896 106.238 8.4393 106.238 8.71076V25.2885C106.238 25.56 106.346 25.8204 106.538 26.0123C106.73 26.2043 106.99 26.3121 107.261 26.3121H110.016C110.288 26.3121 110.548 26.2043 110.74 26.0123C110.932 25.8204 111.04 25.56 111.04 25.2885V8.71076C111.04 8.4393 110.932 8.17896 110.74 7.987C110.548 7.79505 110.288 7.68721 110.016 7.68721ZM49.389 25.1307V23.2414C49.3894 23.1005 49.3606 22.961 49.3044 22.8318C49.2482 22.7026 49.1658 22.5864 49.0624 22.4907C48.959 22.395 48.8369 22.3217 48.7038 22.2756C48.5706 22.2294 48.4293 22.2114 48.2889 22.2227C48.0842 22.2481 47.8781 22.2609 47.6719 22.2609C46.0983 22.2609 45.5626 21.3043 45.5626 20.3477V11.5184H48.3654C48.6369 11.5184 48.8972 11.4105 49.0892 11.2186C49.2811 11.0266 49.389 10.7663 49.389 10.4948V8.71075C49.389 8.44012 49.2818 8.18049 49.0909 7.98868C48.8999 7.79686 48.6408 7.68846 48.3702 7.6872H45.5626V3.94213C45.5626 3.80691 45.5358 3.67302 45.4838 3.54821C45.4317 3.4234 45.3555 3.31014 45.2594 3.21496C45.1633 3.11979 45.0494 3.0446 44.9241 2.99373C44.7988 2.94285 44.6647 2.91731 44.5295 2.91857H41.7362C41.5994 2.91474 41.4632 2.93838 41.3357 2.9881C41.2082 3.03781 41.0919 3.1126 40.9938 3.20803C40.8957 3.30346 40.8177 3.4176 40.7645 3.54369C40.7113 3.66978 40.6839 3.80527 40.6839 3.94213V7.6872H39.0577C38.7863 7.6872 38.5259 7.79504 38.334 7.98699C38.142 8.17895 38.0342 8.43929 38.0342 8.71075V10.4948C38.0342 10.7663 38.142 11.0266 38.334 11.2186C38.5259 11.4105 38.7863 11.5184 39.0577 11.5184H40.6839V21.1608C40.6839 24.992 42.9798 26.5321 46.1318 26.5321C47.0483 26.5628 47.961 26.3999 48.8102 26.0538C48.9838 25.97 49.1302 25.839 49.2326 25.6757C49.335 25.5123 49.3892 25.3234 49.389 25.1307ZM36.797 25.2882V15.3492C36.797 9.69091 33.5732 7.32812 29.7373 7.32812C26.9393 7.32812 25.0787 8.58126 24.0408 10.2266V8.7104C24.0408 8.44222 23.9356 8.18474 23.7478 7.99332C23.5599 7.80191 23.3045 7.69186 23.0364 7.68685H20.2814C20.0099 7.68685 19.7496 7.79469 19.5576 7.98664C19.3657 8.1786 19.2578 8.43894 19.2578 8.7104V25.2882C19.2578 25.5572 19.3637 25.8154 19.5525 26.0069C19.7414 26.1985 19.9981 26.308 20.267 26.3117H23.0172C23.2887 26.3117 23.549 26.2039 23.741 26.0119C23.9329 25.82 24.0408 25.5597 24.0408 25.2882V16.1384C24.0408 13.4169 25.5139 11.628 28.0202 11.628C30.5265 11.628 31.9949 13.4169 31.9949 16.1384V25.2882C31.9949 25.5597 32.1027 25.82 32.2947 26.0119C32.4866 26.2039 32.747 26.3117 33.0184 26.3117H35.7734C36.0449 26.3117 36.3052 26.2039 36.4972 26.0119C36.6891 25.82 36.797 25.5597 36.797 25.2882ZM63.2309 8.35682V10.9253C63.2316 11.0611 63.2051 11.1957 63.153 11.3211C63.1009 11.4465 63.0242 11.5603 62.9275 11.6556C62.8308 11.751 62.716 11.826 62.5899 11.8764C62.4637 11.9268 62.3288 11.9514 62.193 11.9488H62.016C58.3953 11.9488 56.1378 14.4551 56.1378 18.1667V25.2885C56.139 25.5579 56.0336 25.8168 55.8444 26.0086C55.6553 26.2005 55.3979 26.3096 55.1286 26.3121H52.3783C52.1069 26.3121 51.8465 26.2043 51.6546 26.0123C51.4626 25.8204 51.3548 25.56 51.3548 25.2885V8.71076C51.3548 8.4393 51.4626 8.17895 51.6546 7.987C51.8465 7.79504 52.1069 7.6872 52.3783 7.6872H55.1286C55.2631 7.68657 55.3965 7.71261 55.521 7.76383C55.6455 7.81504 55.7586 7.89041 55.8537 7.98558C55.9489 8.08076 56.0243 8.19385 56.0755 8.31831C56.1267 8.44278 56.1527 8.57617 56.1521 8.71076V12.5371C56.7978 9.66735 58.6249 7.34283 61.9921 7.34283H62.2647C62.5245 7.35741 62.7689 7.47035 62.9484 7.6587C63.1279 7.84705 63.2289 8.09667 63.2309 8.35682ZM73.3693 7.32812C68.4955 7.32812 63.5547 10.6953 63.5547 16.9993C63.5547 23.3033 68.5338 26.6705 73.3693 26.6705C78.2049 26.6705 83.184 23.3224 83.184 16.9993C83.184 10.6762 78.2432 7.32812 73.3693 7.32812ZM73.3693 11.6615C76.0574 11.6615 78.4202 13.6512 78.4202 16.9993C78.4202 20.3474 76.0669 22.3371 73.3693 22.3371C70.6718 22.3371 68.2803 20.3474 68.2803 16.9993C68.2803 13.6512 70.6813 11.6615 73.3693 11.6615ZM104.431 16.9996C104.431 23.4471 99.8063 26.6708 95.4729 26.6708C92.1248 26.6708 89.9916 24.8437 89.5277 23.801H89.4177V32.0947C89.4183 32.2293 89.3923 32.3627 89.3411 32.4872C89.2898 32.6116 89.2145 32.7247 89.1193 32.8199C89.0241 32.9151 88.911 32.9904 88.7866 33.0416C88.6621 33.0929 88.5287 33.1189 88.3941 33.1183H85.6439C85.3725 33.1183 85.1121 33.0104 84.9202 32.8185C84.7282 32.6265 84.6204 32.3662 84.6204 32.0947V8.71075C84.6204 8.43929 84.7282 8.17894 84.9202 7.98699C85.1121 7.79503 85.3725 7.68719 85.6439 7.68719H88.3941C88.5287 7.68656 88.6621 7.7126 88.7866 7.76382C88.911 7.81503 89.0241 7.8904 89.1193 7.98558C89.2145 8.08075 89.2898 8.19384 89.3411 8.31831C89.3923 8.44278 89.4183 8.57616 89.4177 8.71075V10.1935H89.5277C90.006 9.15557 92.144 7.32369 95.4729 7.32369C99.8063 7.32847 104.431 10.5522 104.431 16.9996ZM99.6485 16.9996C99.6485 13.5224 97.1374 11.6284 94.4876 11.6284C91.7661 11.6284 89.2933 13.4889 89.2933 16.9996C89.2933 20.5103 91.7661 22.3709 94.4876 22.3709C97.1565 22.3709 99.6676 20.4769 99.6676 16.9996H99.6485ZM12.7944 22.6531C14.3557 22.654 15.8682 22.1092 17.0704 21.113C17.1425 21.0543 17.2327 21.0223 17.3257 21.0227C17.4187 21.023 17.5086 21.0555 17.5803 21.1148C17.652 21.174 17.7009 21.2563 17.7186 21.3476C17.7364 21.4388 17.722 21.5334 17.6779 21.6152C17.0271 22.7472 16.1494 23.7325 15.0998 24.5092C14.0502 25.2859 12.8514 25.8373 11.5786 26.1288C10.3058 26.4203 8.98652 26.4455 7.70351 26.203C6.42051 25.9605 5.20148 25.4554 4.12292 24.7194L2.87457 25.8769C2.77661 25.9677 2.65632 26.031 2.52594 26.0602C2.39557 26.0895 2.25978 26.0836 2.13241 26.0432C2.00504 26.0029 1.89064 25.9295 1.80088 25.8305C1.71112 25.7316 1.6492 25.6106 1.62143 25.4799L0.186536 18.7837C0.0634113 18.1647 0.000937402 17.5352 0 16.904C0 14.3923 0.997759 11.9835 2.77378 10.2075C4.54981 8.43149 6.95861 7.43373 9.47028 7.43373C10.8471 7.4253 12.2088 7.72103 13.4581 8.2998C14.7074 8.87856 15.8135 9.72608 16.6974 10.7818C16.8993 11.0117 17.0046 11.3108 16.9913 11.6165C16.9779 11.9222 16.8469 12.211 16.6256 12.4224L8.54239 20.1182C8.46921 20.1899 8.41108 20.2754 8.37139 20.3699C8.3317 20.4643 8.31126 20.5658 8.31126 20.6682C8.31126 20.7707 8.3317 20.8721 8.37139 20.9665C8.41108 21.061 8.46921 21.1466 8.54239 21.2183C9.67117 22.3136 10.8143 22.6531 12.7944 22.6531ZM5.1471 15.5673C5.19423 16.3408 5.48728 17.0789 5.9835 17.6741C6.03167 17.7345 6.09377 17.7823 6.16447 17.8135C6.23517 17.8447 6.31238 17.8583 6.38947 17.8531C6.46657 17.8479 6.54127 17.8242 6.60718 17.7838C6.67308 17.7435 6.72823 17.6878 6.7679 17.6215L10.0251 12.5802C10.0692 12.5166 10.0972 12.4432 10.1067 12.3664C10.1162 12.2896 10.1069 12.2116 10.0796 12.1391C10.0523 12.0667 10.0079 12.002 9.95007 11.9505C9.89225 11.899 9.82281 11.8624 9.7477 11.8436C9.00105 11.6364 8.20771 11.6731 7.48342 11.9485C6.75914 12.224 6.14182 12.7236 5.72153 13.3746C5.30124 14.0256 5.09998 14.7939 5.1471 15.5673Z" fill="url(#paint0_linear)"></path><defs><linearGradient id="paint0_linear" x1="-4.87853e-07" y1="16.9996" x2="130.957" y2="16.9996" gradientUnits="userSpaceOnUse"><stop stop-color="#64DAA1"></stop><stop offset="1" stop-color="#00B4E4"></stop></linearGradient></defs></svg> 